<?xml version="1.0" encoding="iso-8859-1"?>
<!-- Generator: Adobe Illustrator 19.0.0, SVG Export Plug-In . SVG Version: 6.00 Build 0)  -->
<svg xmlns="http://www.w3.org/2000/svg" xmlns:xlink="http://www.w3.org/1999/xlink" version="1.1" id="Capa_1" x="0px" y="0px" viewBox="0 0 512 512" style="enable-background:new 0 0 512 512;" xml:space="preserve" width="512px" height="512px">
<g>
	<g>
		<path d="M503.467,494.933H366.019c-6.307-32.388-48.043-57.075-101.485-59.476V110.933h59.733v34.133    c0.011,9.421,7.646,17.056,17.067,17.067h110.933c9.421-0.011,17.056-7.646,17.067-17.067V76.142    c-0.011-9.421-7.646-17.056-17.067-17.067h-51.2v-25.6C400.87,24.238,393.238,16.9,384,17.067H264.533V8.533    C264.533,3.82,260.713,0,256,0s-8.533,3.82-8.533,8.533v247.139c-5.164-3.074-11.056-4.713-17.067-4.747h-32.067    c-4.524-0.012-8.86-1.809-12.067-5l-23.776-23.776c5.97-3.471,11.5-7.651,16.468-12.449    c22.057-21.451,30.857-53.116,23.033-82.872c-7.824-29.756-31.062-52.996-60.817-60.824c-29.755-7.827-61.421,0.97-82.874,23.025    c-16.141,16.488-24.857,38.847-24.133,61.908c0.969,26.111,13.791,50.356,34.827,65.854H46.05    c-16,0.017-28.967,12.983-28.983,28.983v95.629c0.016,16.001,12.982,28.969,28.983,28.988H76.8v102.4    c-0.002,7.91,2.405,15.633,6.899,22.141H8.533c-4.713,0-8.533,3.82-8.533,8.533S3.82,512,8.533,512h494.933    c4.713,0,8.533-3.82,8.533-8.533S508.18,494.933,503.467,494.933z M398.092,108.875c0.096-0.083,0.15-0.196,0.242-0.283    c0.683-0.742,1.278-1.561,1.772-2.44c0.147-0.293,0.276-0.595,0.386-0.904c0.265-0.749,0.423-1.532,0.469-2.326    c0.011-0.182,0.105-0.337,0.105-0.523V76.142h51.2v68.925h-96.365L398.092,108.875z M341.333,135.079v-24.146h28.15    L341.333,135.079z M264.533,34.133L384,33.475v60.392h-51.2c-0.531,0.053-1.056,0.159-1.567,0.316l-66.7,0.342V34.133z     M128,80.787c30.916,3.944,55.258,28.288,59.2,59.204h-50.667c-4.711-0.005-8.529-3.822-8.533-8.533V80.787z M76.8,353.325H46.05    c-6.58-0.007-11.912-5.341-11.917-11.921v-95.629c0.006-6.579,5.338-11.911,11.917-11.917H76.8V353.325z M51.233,150.462    L51.233,150.462c-0.991-35.128,24.836-65.274,59.7-69.683v50.68c0.015,14.132,11.468,25.585,25.6,25.6h50.675    c-4.403,34.868-34.552,60.7-69.683,59.704C81.516,215.339,52.652,186.472,51.233,150.462z M145.067,472.792    c-0.014,12.223-9.919,22.127-22.142,22.142h-6.917c-12.223-0.014-22.127-9.919-22.142-22.142V368.905h51.2V472.792z     M145.067,351.838h-51.2V245.925l51.2,51.2V351.838z M105.933,233.858h44.133l24.133,24.133c6.414,6.381,15.086,9.974,24.134,10    H230.4c9.426,0,17.067,7.641,17.067,17.067c0,9.426-7.641,17.067-17.067,17.067h-49.133c-4.524-0.012-8.86-1.809-12.067-5    l-9.567-9.567L105.933,233.858z M162.133,313.282c5.65,3.826,12.31,5.883,19.133,5.909H230.4    c6.01-0.034,11.902-1.673,17.067-4.747v121.013c-36.355,1.633-67.264,13.574-85.333,31.256V313.282z M163.5,494.933    c7.7-23.863,46.933-42.667,92.5-42.667s84.8,18.804,92.5,42.667H163.5z" fill="#FFFFFF"/>
	</g>
</g>
<g>
</g>
<g>
</g>
<g>
</g>
<g>
</g>
<g>
</g>
<g>
</g>
<g>
</g>
<g>
</g>
<g>
</g>
<g>
</g>
<g>
</g>
<g>
</g>
<g>
</g>
<g>
</g>
<g>
</g>
</svg>
